NotoSerifGujarati-Bold.ufo
<glyph name="quotedbl" format="2">
  <advance width="570"/>
  <unicode hex="0022"/>
  <outline>
    <contour>
      <point x="365" y="410" type="line"/>
      <point x="446" y="410" type="line"/>
      <point x="502" y="714" type="line"/>
      <point x="309" y="714" type="line"/>
    </contour>
    <contour>
      <point x="124" y="410" type="line"/>
      <point x="205" y="410" type="line"/>
      <point x="261" y="714" type="line"/>
      <point x="68" y="714" type="line"/>
    </contour>
  </outline>
</glyph>
<glyph name="quotesingle" format="2">
  <advance width="329"/>
  <unicode hex="0027"/>
  <outline>
    <contour>
      <point x="124" y="410" type="line"/>
      <point x="205" y="410" type="line"/>
      <point x="261" y="714" type="line"/>
      <point x="68" y="714" type="line"/>
    </contour>
  </outline>
</glyph>
<glyph name="parenright" format="2">
  <advance width="522"/>
  <unicode hex="0029"/>
  <outline>
    <contour>
      <point x="127" y="-147" type="line"/>
      <point x="379" y="-46"/>
      <point x="478" y="121"/>
      <point x="478" y="319" type="curve" smooth="yes"/>
      <point x="478" y="515"/>
      <point x="379" y="680"/>
      <point x="127" y="781" type="curve"/>
      <point x="127" y="705" type="line"/>
      <point x="241" y="623"/>
      <point x="275" y="476"/>
      <point x="275" y="319" type="curve" smooth="yes"/>
      <point x="275" y="160"/>
      <point x="241" y="11"/>
      <point x="127" y="-70" type="curve"/>
    </contour>
  </outline>
</glyph>
<glyph name="asterisk" format="2">
  <advance width="517"/>
  <unicode hex="002A"/>
  <outline>
    <contour>
      <point x="195" y="350" type="line"/>
      <point x="323" y="350" type="line"/>
      <point x="283" y="515" type="line"/>
      <point x="429" y="403" type="line"/>
      <point x="482" y="518" type="line"/>
      <point x="325" y="559" type="line"/>
      <point x="482" y="593" type="line"/>
      <point x="429" y="709" type="line"/>
      <point x="283" y="598" type="line"/>
      <point x="325" y="761" type="line"/>
      <point x="195" y="761" type="line"/>
      <point x="233" y="595" type="line"/>
      <point x="87" y="711" type="line"/>
      <point x="35" y="594" type="line"/>
      <point x="194" y="559" type="line"/>
      <point x="35" y="517" type="line"/>
      <point x="87" y="402" type="line"/>
      <point x="232" y="517" type="line"/>
    </contour>
  </outline>
</glyph>
<glyph name="comma" format="2">
  <advance width="365"/>
  <unicode hex="002C"/>
  <outline>
    <contour>
      <point x="107" y="-154" type="line"/>
      <point x="245" y="-119"/>
      <point x="297" y="-43"/>
      <point x="297" y="42" type="curve" smooth="yes"/>
      <point x="297" y="119"/>
      <point x="267" y="169"/>
      <point x="200" y="169" type="curve" smooth="yes"/>
      <point x="156" y="169"/>
      <point x="117" y="143"/>
      <point x="117" y="93" type="curve" smooth="yes"/>
      <point x="117" y="-1"/>
      <point x="190" y="11"/>
      <point x="190" y="-25" type="curve" smooth="yes"/>
      <point x="190" y="-61"/>
      <point x="160" y="-74"/>
      <point x="107" y="-95" type="curve"/>
    </contour>
  </outline>
</glyph>
<glyph name="period" format="2">
  <advance width="383"/>
  <unicode hex="002E"/>
  <outline>
    <contour>
      <point x="223" y="-9" type="curve" smooth="yes"/>
      <point x="274" y="-9"/>
      <point x="319" y="13"/>
      <point x="319" y="80" type="curve" smooth="yes"/>
      <point x="319" y="148"/>
      <point x="274" y="169"/>
      <point x="223" y="169" type="curve" smooth="yes"/>
      <point x="169" y="169"/>
      <point x="127" y="148"/>
      <point x="127" y="80" type="curve" smooth="yes"/>
      <point x="127" y="13"/>
      <point x="169" y="-9"/>
    </contour>
  </outline>
</glyph>
<glyph name="seven" format="2">
  <advance width="569"/>
  <unicode hex="0037"/>
  <outline>
    <contour>
      <point x="146" y="0" type="line"/>
      <point x="258" y="0" type="line"/>
      <point x="526" y="650" type="line"/>
      <point x="526" y="714" type="line"/>
      <point x="51" y="714" type="line"/>
      <point x="46" y="482" type="line"/>
      <point x="119" y="482" type="line"/>
      <point x="126" y="522" type="line" smooth="yes"/>
      <point x="131" y="555"/>
      <point x="149" y="573"/>
      <point x="185" y="573" type="curve"/>
      <point x="420" y="573" type="line"/>
    </contour>
  </outline>
</glyph>
<glyph name="colon" format="2">
  <advance width="383"/>
  <unicode hex="003A"/>
  <outline>
    <contour>
      <point x="223" y="367" type="curve" smooth="yes"/>
      <point x="274" y="367"/>
      <point x="319" y="389"/>
      <point x="319" y="456" type="curve" smooth="yes"/>
      <point x="319" y="524"/>
      <point x="274" y="545"/>
      <point x="223" y="545" type="curve" smooth="yes"/>
      <point x="169" y="545"/>
      <point x="127" y="524"/>
      <point x="127" y="456" type="curve" smooth="yes"/>
      <point x="127" y="389"/>
      <point x="169" y="367"/>
    </contour>
    <contour>
      <point x="223" y="-9" type="curve" smooth="yes"/>
      <point x="274" y="-9"/>
      <point x="319" y="13"/>
      <point x="319" y="80" type="curve" smooth="yes"/>
      <point x="319" y="148"/>
      <point x="274" y="169"/>
      <point x="223" y="169" type="curve" smooth="yes"/>
      <point x="169" y="169"/>
      <point x="127" y="148"/>
      <point x="127" y="80" type="curve" smooth="yes"/>
      <point x="127" y="13"/>
      <point x="169" y="-9"/>
    </contour>
  </outline>
</glyph>
<glyph name="semicolon" format="2">
  <advance width="372"/>
  <unicode hex="003B"/>
  <outline>
    <contour>
      <point x="107" y="-154" type="line"/>
      <point x="245" y="-119"/>
      <point x="297" y="-43"/>
      <point x="297" y="42" type="curve" smooth="yes"/>
      <point x="297" y="119"/>
      <point x="267" y="169"/>
      <point x="200" y="169" type="curve" smooth="yes"/>
      <point x="156" y="169"/>
      <point x="117" y="143"/>
      <point x="117" y="93" type="curve" smooth="yes"/>
      <point x="117" y="-1"/>
      <point x="190" y="11"/>
      <point x="190" y="-25" type="curve"/>
      <point x="190" y="-58"/>
      <point x="166" y="-76"/>
      <point x="107" y="-95" type="curve"/>
    </contour>
    <contour>
      <point x="207" y="367" type="curve" smooth="yes"/>
      <point x="258" y="367"/>
      <point x="303" y="389"/>
      <point x="303" y="456" type="curve" smooth="yes"/>
      <point x="303" y="524"/>
      <point x="258" y="545"/>
      <point x="207" y="545" type="curve" smooth="yes"/>
      <point x="153" y="545"/>
      <point x="111" y="524"/>
      <point x="111" y="456" type="curve" smooth="yes"/>
      <point x="111" y="389"/>
      <point x="153" y="367"/>
    </contour>
  </outline>
</glyph>
<glyph name="question" format="2">
  <advance width="552"/>
  <unicode hex="003F"/>
  <outline>
    <contour>
      <point x="216" y="223" type="line"/>
      <point x="277" y="223" type="line"/>
      <point x="298" y="319" type="line"/>
      <point x="431" y="375"/>
      <point x="497" y="433"/>
      <point x="497" y="540" type="curve" smooth="yes"/>
      <point x="497" y="656"/>
      <point x="398" y="724"/>
      <point x="251" y="724" type="curve" smooth="yes"/>
      <point x="104" y="724"/>
      <point x="37" y="667"/>
      <point x="37" y="605" type="curve" smooth="yes"/>
      <point x="37" y="548"/>
      <point x="87" y="528"/>
      <point x="170" y="528" type="curve"/>
      <point x="170" y="611"/>
      <point x="196" y="664"/>
      <point x="255" y="664" type="curve" smooth="yes"/>
      <point x="309" y="664"/>
      <point x="336" y="619"/>
      <point x="336" y="556" type="curve" smooth="yes"/>
      <point x="336" y="477"/>
      <point x="310" y="397"/>
      <point x="195" y="351" type="curve"/>
    </contour>
    <contour>
      <point x="245" y="-8" type="curve" smooth="yes"/>
      <point x="289" y="-8"/>
      <point x="328" y="12"/>
      <point x="328" y="72" type="curve" smooth="yes"/>
      <point x="328" y="134"/>
      <point x="289" y="153"/>
      <point x="245" y="153" type="curve" smooth="yes"/>
      <point x="198" y="153"/>
      <point x="162" y="134"/>
      <point x="162" y="72" type="curve" smooth="yes"/>
      <point x="162" y="12"/>
      <point x="198" y="-8"/>
    </contour>
  </outline>
</glyph>
<glyph name="bracketleft" format="2">
  <advance width="468"/>
  <unicode hex="005B"/>
  <outline>
    <contour>
      <point x="73" y="-128" type="line"/>
      <point x="390" y="-128" type="line"/>
      <point x="390" y="-67" type="line"/>
      <point x="347" y="-67" type="line" smooth="yes"/>
      <point x="302" y="-67"/>
      <point x="265" y="-58"/>
      <point x="265" y="5" type="curve" smooth="yes"/>
      <point x="265" y="627" type="line" smooth="yes"/>
      <point x="265" y="690"/>
      <point x="302" y="699"/>
      <point x="347" y="699" type="curve" smooth="yes"/>
      <point x="390" y="699" type="line"/>
      <point x="390" y="760" type="line"/>
      <point x="73" y="760" type="line"/>
    </contour>
  </outline>
</glyph>
<glyph name="bracketright" format="2">
  <advance width="517"/>
  <unicode hex="005D"/>
  <outline>
    <contour>
      <point x="127" y="-128" type="line"/>
      <point x="444" y="-128" type="line"/>
      <point x="444" y="760" type="line"/>
      <point x="127" y="760" type="line"/>
      <point x="127" y="699" type="line"/>
      <point x="170" y="699" type="line" smooth="yes"/>
      <point x="215" y="699"/>
      <point x="252" y="690"/>
      <point x="252" y="627" type="curve" smooth="yes"/>
      <point x="252" y="5" type="line" smooth="yes"/>
      <point x="252" y="-58"/>
      <point x="215" y="-67"/>
      <point x="170" y="-67" type="curve" smooth="yes"/>
      <point x="127" y="-67" type="line"/>
    </contour>
  </outline>
</glyph>
<glyph name="braceleft" format="2">
  <advance width="554"/>
  <unicode hex="007B"/>
  <outline>
    <contour>
      <point x="339" y="-123" type="curve" smooth="yes"/>
      <point x="456" y="-123" type="line"/>
      <point x="456" y="-62" type="line"/>
      <point x="410" y="-62" type="line" smooth="yes"/>
      <point x="355" y="-62"/>
      <point x="347" y="-29"/>
      <point x="347" y="30" type="curve" smooth="yes"/>
      <point x="347" y="200" type="line" smooth="yes"/>
      <point x="347" y="256"/>
      <point x="314" y="290"/>
      <point x="238" y="314" type="curve"/>
      <point x="238" y="327" type="line"/>
      <point x="317" y="349"/>
      <point x="347" y="383"/>
      <point x="347" y="439" type="curve" smooth="yes"/>
      <point x="347" y="609" type="line" smooth="yes"/>
      <point x="347" y="667"/>
      <point x="355" y="700"/>
      <point x="410" y="700" type="curve" smooth="yes"/>
      <point x="456" y="700" type="line"/>
      <point x="456" y="760" type="line"/>
      <point x="339" y="760" type="line" smooth="yes"/>
      <point x="214" y="760"/>
      <point x="149" y="706"/>
      <point x="149" y="612" type="curve" smooth="yes"/>
      <point x="149" y="441" type="line" smooth="yes"/>
      <point x="149" y="371"/>
      <point x="98" y="359"/>
      <point x="34" y="357" type="curve"/>
      <point x="34" y="282" type="line"/>
      <point x="98" y="279"/>
      <point x="149" y="269"/>
      <point x="149" y="197" type="curve" smooth="yes"/>
      <point x="149" y="28" type="line" smooth="yes"/>
      <point x="149" y="-65"/>
      <point x="214" y="-123"/>
    </contour>
  </outline>
</glyph>
<glyph name="braceright" format="2">
  <advance width="583"/>
  <unicode hex="007D"/>
  <outline>
    <contour>
      <point x="127" y="-123" type="line"/>
      <point x="243" y="-123" type="line"/>
      <point x="369" y="-123"/>
      <point x="434" y="-65"/>
      <point x="434" y="28" type="curve" smooth="yes"/>
      <point x="434" y="197" type="line" smooth="yes"/>
      <point x="434" y="269"/>
      <point x="485" y="279"/>
      <point x="549" y="282" type="curve"/>
      <point x="549" y="357" type="line"/>
      <point x="485" y="359"/>
      <point x="434" y="371"/>
      <point x="434" y="441" type="curve" smooth="yes"/>
      <point x="434" y="612" type="line" smooth="yes"/>
      <point x="434" y="706"/>
      <point x="369" y="760"/>
      <point x="243" y="760" type="curve" smooth="yes"/>
      <point x="127" y="760" type="line"/>
      <point x="127" y="700" type="line"/>
      <point x="173" y="700" type="line" smooth="yes"/>
      <point x="228" y="700"/>
      <point x="236" y="667"/>
      <point x="236" y="609" type="curve" smooth="yes"/>
      <point x="236" y="439" type="line" smooth="yes"/>
      <point x="236" y="383"/>
      <point x="266" y="349"/>
      <point x="345" y="327" type="curve"/>
      <point x="345" y="314" type="line"/>
      <point x="269" y="290"/>
      <point x="236" y="256"/>
      <point x="236" y="200" type="curve" smooth="yes"/>
      <point x="236" y="30" type="line" smooth="yes"/>
      <point x="236" y="-29"/>
      <point x="228" y="-62"/>
      <point x="173" y="-62" type="curve" smooth="yes"/>
      <point x="127" y="-62" type="line"/>
    </contour>
  </outline>
</glyph>
<glyph name="asciitilde" format="2">
  <advance width="569"/>
  <unicode hex="007E"/>
  <outline>
    <contour>
      <point x="35" y="257" type="curve"/>
      <point x="118" y="257" type="line"/>
      <point x="118" y="343"/>
      <point x="139" y="373"/>
      <point x="170" y="373" type="curve" smooth="yes"/>
      <point x="195" y="373"/>
      <point x="207" y="364"/>
      <point x="255" y="323" type="curve" smooth="yes"/>
      <point x="314" y="272"/>
      <point x="343" y="257"/>
      <point x="400" y="257" type="curve" smooth="yes"/>
      <point x="503" y="257"/>
      <point x="530" y="323"/>
      <point x="533" y="456" type="curve"/>
      <point x="448" y="456" type="line"/>
      <point x="448" y="371"/>
      <point x="434" y="340"/>
      <point x="403" y="340" type="curve" smooth="yes"/>
      <point x="377" y="340"/>
      <point x="355" y="353"/>
      <point x="314" y="389" type="curve" smooth="yes"/>
      <point x="248" y="447"/>
      <point x="227" y="456"/>
      <point x="179" y="456" type="curve" smooth="yes"/>
      <point x="72" y="456"/>
      <point x="35" y="379"/>
    </contour>
  </outline>
</glyph>
<glyph name="six-gujarati" format="2">
  <advance width="505"/>
  <unicode hex="0AEC"/>
  <outline>
    <contour>
      <point x="408" y="-192" type="line"/>
      <point x="447" y="-166"/>
      <point x="479" y="-128"/>
      <point x="479" y="-79" type="curve" smooth="yes"/>
      <point x="479" y="97"/>
      <point x="212" y="66"/>
      <point x="212" y="143" type="curve" smooth="yes"/>
      <point x="212" y="197"/>
      <point x="335" y="206"/>
      <point x="460" y="206" type="curve"/>
      <point x="420" y="341" type="line"/>
      <point x="318" y="342"/>
      <point x="221" y="330"/>
      <point x="155" y="298" type="curve" smooth="yes"/>
      <point x="103" y="273"/>
      <point x="70" y="236"/>
      <point x="70" y="183" type="curve" smooth="yes"/>
      <point x="70" y="14"/>
      <point x="333" y="32"/>
      <point x="333" y="-53" type="curve" smooth="yes"/>
      <point x="333" y="-75"/>
      <point x="315" y="-89"/>
      <point x="294" y="-100" type="curve"/>
    </contour>
    <contour>
      <point x="161" y="247" type="curve"/>
      <point x="218" y="286" type="line"/>
      <point x="198" y="300"/>
      <point x="187" y="315"/>
      <point x="187" y="337" type="curve" smooth="yes"/>
      <point x="187" y="421"/>
      <point x="376" y="408"/>
      <point x="423" y="482" type="curve"/>
      <point x="339" y="617" type="line"/>
      <point x="301" y="546"/>
      <point x="50" y="544"/>
      <point x="50" y="398" type="curve" smooth="yes"/>
      <point x="50" y="334"/>
      <point x="101" y="283"/>
    </contour>
  </outline>
</glyph>
<glyph name="quoteright" format="2">
  <advance width="291"/>
  <unicode hex="2019"/>
  <outline>
    <contour>
      <point x="45" y="391" type="line"/>
      <point x="183" y="426"/>
      <point x="235" y="502"/>
      <point x="235" y="587" type="curve" smooth="yes"/>
      <point x="235" y="664"/>
      <point x="199" y="714"/>
      <point x="132" y="714" type="curve" smooth="yes"/>
      <point x="88" y="714"/>
      <point x="55" y="688"/>
      <point x="55" y="638" type="curve" smooth="yes"/>
      <point x="55" y="544"/>
      <point x="128" y="556"/>
      <point x="128" y="520" type="curve"/>
      <point x="128" y="484"/>
      <point x="99" y="469"/>
      <point x="45" y="450" type="curve"/>
    </contour>
  </outline>
</glyph>
<glyph name="quotedblright" format="2">
  <advance width="507"/>
  <unicode hex="201D"/>
  <outline>
    <contour>
      <point x="261" y="391" type="line"/>
      <point x="399" y="426"/>
      <point x="451" y="502"/>
      <point x="451" y="587" type="curve" smooth="yes"/>
      <point x="451" y="664"/>
      <point x="415" y="714"/>
      <point x="348" y="714" type="curve" smooth="yes"/>
      <point x="304" y="714"/>
      <point x="271" y="688"/>
      <point x="271" y="638" type="curve" smooth="yes"/>
      <point x="271" y="544"/>
      <point x="344" y="556"/>
      <point x="344" y="520" type="curve"/>
      <point x="344" y="481"/>
      <point x="314" y="471"/>
      <point x="261" y="450" type="curve"/>
    </contour>
    <contour>
      <point x="45" y="391" type="line"/>
      <point x="183" y="426"/>
      <point x="235" y="502"/>
      <point x="235" y="587" type="curve" smooth="yes"/>
      <point x="235" y="664"/>
      <point x="199" y="714"/>
      <point x="132" y="714" type="curve" smooth="yes"/>
      <point x="88" y="714"/>
      <point x="55" y="688"/>
      <point x="55" y="638" type="curve" smooth="yes"/>
      <point x="55" y="544"/>
      <point x="128" y="556"/>
      <point x="128" y="520" type="curve"/>
      <point x="128" y="481"/>
      <point x="98" y="471"/>
      <point x="45" y="450" type="curve"/>
    </contour>
  </outline>
</glyph>
<glyph name="ellipsis" format="2">
  <advance width="1017"/>
  <unicode hex="2026"/>
  <outline>
    <contour>
      <point x="857" y="-9" type="curve" smooth="yes"/>
      <point x="908" y="-9"/>
      <point x="953" y="13"/>
      <point x="953" y="80" type="curve" smooth="yes"/>
      <point x="953" y="148"/>
      <point x="908" y="169"/>
      <point x="857" y="169" type="curve" smooth="yes"/>
      <point x="803" y="169"/>
      <point x="761" y="148"/>
      <point x="761" y="80" type="curve" smooth="yes"/>
      <point x="761" y="13"/>
      <point x="803" y="-9"/>
    </contour>
    <contour>
      <point x="223" y="-9" type="curve" smooth="yes"/>
      <point x="274" y="-9"/>
      <point x="319" y="13"/>
      <point x="319" y="80" type="curve" smooth="yes"/>
      <point x="319" y="148"/>
      <point x="274" y="169"/>
      <point x="223" y="169" type="curve" smooth="yes"/>
      <point x="169" y="169"/>
      <point x="127" y="148"/>
      <point x="127" y="80" type="curve" smooth="yes"/>
      <point x="127" y="13"/>
      <point x="169" y="-9"/>
    </contour>
    <contour>
      <point x="540" y="-9" type="curve" smooth="yes"/>
      <point x="591" y="-9"/>
      <point x="636" y="13"/>
      <point x="636" y="80" type="curve" smooth="yes"/>
      <point x="636" y="148"/>
      <point x="591" y="169"/>
      <point x="540" y="169" type="curve" smooth="yes"/>
      <point x="486" y="169"/>
      <point x="444" y="148"/>
      <point x="444" y="80" type="curve" smooth="yes"/>
      <point x="444" y="13"/>
      <point x="486" y="-9"/>
    </contour>
  </outline>
</glyph>
<glyph name="sh_la-gujarati" format="2">
  <advance width="793"/>
  <anchor x="612" y="0" name="bottom"/>
  <anchor x="190" y="-70" name="bottomleft"/>
  <anchor x="612" y="0" name="bottomright"/>
  <anchor x="612" y="612" name="top"/>
  <anchor x="612" y="592" name="topright"/>
  <outline>
    <contour>
      <point x="105" y="229" type="line"/>
      <point x="285" y="271"/>
      <point x="461" y="362"/>
      <point x="461" y="483" type="curve" smooth="yes"/>
      <point x="461" y="530"/>
      <point x="432" y="580"/>
      <point x="390" y="615" type="curve" smooth="yes"/>
      <point x="351" y="647"/>
      <point x="305" y="667"/>
      <point x="258" y="667" type="curve" smooth="yes"/>
      <point x="181" y="667"/>
      <point x="123" y="622"/>
      <point x="123" y="549" type="curve" smooth="yes"/>
      <point x="123" y="403"/>
      <point x="347" y="314"/>
      <point x="617" y="314" type="curve"/>
      <point x="617" y="377" type="line"/>
      <point x="409" y="377"/>
      <point x="251" y="435"/>
      <point x="251" y="527" type="curve" smooth="yes"/>
      <point x="251" y="559"/>
      <point x="271" y="582"/>
      <point x="301" y="582" type="curve" smooth="yes"/>
      <point x="335" y="582"/>
      <point x="349" y="558"/>
      <point x="349" y="531" type="curve" smooth="yes"/>
      <point x="349" y="448"/>
      <point x="214" y="385"/>
      <point x="30" y="344" type="curve"/>
    </contour>
    <contour>
      <point x="445" y="-63" type="curve" smooth="yes"/>
      <point x="483" y="-63"/>
      <point x="515" y="-54"/>
      <point x="542" y="-36" type="curve"/>
      <point x="491" y="53" type="line"/>
      <point x="462" y="33"/>
      <point x="431" y="21"/>
      <point x="396" y="21" type="curve" smooth="yes"/>
      <point x="342" y="21"/>
      <point x="311" y="51"/>
      <point x="311" y="90" type="curve" smooth="yes"/>
      <point x="311" y="142"/>
      <point x="362" y="171"/>
      <point x="437" y="190" type="curve"/>
      <point x="397" y="283" type="line"/>
      <point x="289" y="268"/>
      <point x="229" y="210"/>
      <point x="229" y="127" type="curve" smooth="yes"/>
      <point x="229" y="79"/>
      <point x="256" y="33"/>
      <point x="296" y="-3" type="curve" smooth="yes"/>
      <point x="337" y="-40"/>
      <point x="392" y="-63"/>
    </contour>
    <contour>
      <point x="394" y="48" type="line"/>
      <point x="584" y="121" type="line"/>
      <point x="555" y="198" type="line"/>
      <point x="359" y="128" type="line"/>
    </contour>
    <contour>
      <point x="747" y="-5" type="curve" smooth="yes"/>
      <point x="787" y="-5"/>
      <point x="817" y="13"/>
      <point x="839" y="35" type="curve"/>
      <point x="777" y="154" type="line"/>
      <point x="749" y="120"/>
      <point x="719" y="100"/>
      <point x="697" y="100" type="curve" smooth="yes"/>
      <point x="691" y="100"/>
      <point x="688" y="102"/>
      <point x="688" y="109" type="curve" smooth="yes"/>
      <point x="688" y="579" type="line"/>
      <point x="536" y="612" type="line"/>
      <point x="536" y="167" type="line" smooth="yes"/>
      <point x="536" y="109"/>
      <point x="572" y="76"/>
      <point x="615" y="46" type="curve" smooth="yes"/>
      <point x="663" y="13"/>
      <point x="702" y="-5"/>
    </contour>
  </outline>
</glyph>
